<svg xmlns="http://www.w3.org/2000/svg" viewBox="0 0 53.89 53.89"><defs><style>.cls-1{opacity:0;}.cls-2{fill:#fff;}.cls-3{fill:none;stroke:#000;stroke-linecap:round;stroke-linejoin:round;stroke-width:3.4px;}</style></defs><title>icn-delAsset 6</title><g id="Layer_2" data-name="Layer 2"><g id="Layer_1-2" data-name="Layer 1"><g class="cls-1"><path class="cls-2" d="M53.89,0h0V53.89H0V0H53.89m0,0H0V53.89H53.89V0Z"/></g><path class="cls-3" d="M13.68,13H40.09a0,0,0,0,1,0,0V41.89a4.49,4.49,0,0,1-4.49,4.49H18.17a4.49,4.49,0,0,1-4.49-4.49V13A0,0,0,0,1,13.68,13Z"/><line class="cls-3" x1="10.83" y1="13" x2="42.94" y2="13"/><path class="cls-3" d="M25.41,7.51h3A5.49,5.49,0,0,1,33.86,13v0a0,0,0,0,1,0,0H19.92a0,0,0,0,1,0,0v0A5.49,5.49,0,0,1,25.41,7.51Z"/><line class="cls-3" x1="22.59" y1="18.07" x2="22.59" y2="40.46"/><line class="cls-3" x1="31.39" y1="18.07" x2="31.39" y2="40.46"/></g></g></svg>